<svg xmlns="http://www.w3.org/2000/svg" viewBox="0 0 36 36">
  <path d="M29 17c-.6 0-1-.4-1-1v-4c0-2.8-2.2-5-5-5H13c-2.8 0-5 2.2-5 5v4c0 .6-.4 1-1 1s-1-.4-1-1v-4c0-3.9 3.1-7 7-7h10c3.9 0 7 3.1 7 7v4c0 .6-.4 1-1 1zM9.5 28h17v2h-17z"/>
  <path d="M5.3 28.7C3.2 27.3 2 25 2 22.5v-1.3C2 17.8 4.8 15 8.2 15h19.7c3.4 0 6.2 2.8 6.2 6.2v1.3c0 2.5-1.2 4.8-3.3 6.2L29.7 27c1.5-1 2.4-2.7 2.4-4.6v-1.3c0-2.3-1.9-4.2-4.2-4.2H8.2c-2.3.1-4.2 2-4.2 4.3v1.3c0 1.8.9 3.5 2.5 4.6l-1.2 1.6z"/>
  <path d="M8 31c-1.7 0-3-1.3-3-3 0-.5.1-1 .4-1.5l1.7 1c-.1.2-.1.3-.1.5 0 .6.4 1 1 1s1-.4 1-1h2c0 1.7-1.3 3-3 3zM28 31c-1.7 0-3-1.3-3-3h2c0 .6.4 1 1 1s1-.4 1-1c0-.2 0-.3-.1-.5l1.7-1c.3.5.4 1 .4 1.5 0 1.7-1.3 3-3 3z"/>
  <circle cx="9" cy="22" r="2"/>
  <circle cx="27" cy="22" r="2"/>
  <path d="M22.2 5.5h-2V4.3H16v1.2h-2V4.3c0-1.1.9-2 2-2h4.2c1.1 0 2 .9 2 2v1.2z"/>
</svg>
