<svg class="icon" viewBox="0 0 1024 1024" xmlns="http://www.w3.org/2000/svg"><path d="M974.933 497.067L761.6 283.733c-4.267-4.266-8.533-6.4-14.933-6.4-12.8 0-21.334 8.534-21.334 21.334 0 6.4 2.134 10.666 6.4 14.933L908.8 490.667H64c-12.8 0-21.333 8.533-21.333 21.333S51.2 533.333 64 533.333h844.8L731.733 710.4c-4.266 4.267-6.4 8.533-6.4 14.933 0 12.8 8.534 21.334 21.334 21.334 6.4 0 10.666-2.134 14.933-6.4l213.333-213.334c4.267-4.266 6.4-8.533 6.4-14.933s-2.133-10.667-6.4-14.933z" fill="#5e5e5e"/>
</svg>