<svg xmlns="http://www.w3.org/2000/svg" viewBox="0 0 36 36">
  <path d="M21.5 23H11.1l-.1-.8c-.1-.7-.8-1.2-1.5-1.2s-1.3.5-1.5 1.2l-.1.8H4c-1.7 0-3-1.3-3-3V9c0-1.7 1.3-3 3-3h18c1.7 0 3 1.3 3 3v10.5c0 1.9-1.6 3.5-3.5 3.5zm-8.8-2h8.9c.8 0 1.5-.7 1.5-1.5V9c0-.6-.4-1-1-1H4c-.6 0-1 .4-1 1v11c0 .6.4 1 1 1h2.3c.6-1.2 1.8-2 3.2-2s2.6.8 3.2 2z"/>
  <path d="M9.5 26C7.6 26 6 24.4 6 22.5S7.6 19 9.5 19s3.5 1.6 3.5 3.5S11.4 26 9.5 26zm0-5c-.8 0-1.5.7-1.5 1.5S8.7 24 9.5 24s1.5-.7 1.5-1.5-.7-1.5-1.5-1.5zM25.5 26c-1.9 0-3.5-1.6-3.5-3.5s1.6-3.5 3.5-3.5 3.5 1.6 3.5 3.5-1.6 3.5-3.5 3.5zm0-5c-.8 0-1.5.7-1.5 1.5s.7 1.5 1.5 1.5 1.5-.7 1.5-1.5-.7-1.5-1.5-1.5z"/>
  <path d="M31 23h-4v-2h-4V10h7.6l3.4 5.7V20c0 1.7-1.3 3-3 3zm-2-2h2c.6 0 1-.4 1-1v-3.7L29.4 12H25v7h4v2z"/>
</svg>
