<svg xmlns="http://www.w3.org/2000/svg" viewBox="0 0 36 36">
  <path d="M1 9c-.3 0-.6-.1-.8-.4-.3-.4-.3-1.1.1-1.4 3.2-2.6 7-4.5 11.1-5.4l.9-.2.3.9c.7 2.1 2.6 3.5 4.9 3.5 2.3 0 4.3-1.5 4.9-3.7l.2-.9.9.2c4.4.9 8.6 2.8 12.1 5.7.4.3.5 1 .1 1.4-.3.4-1 .5-1.4.1-3-2.4-6.6-4.2-10.4-5.1-1 2.6-3.5 4.3-6.4 4.3-2.8 0-5.3-1.6-6.4-4.1-3.5 1-6.7 2.6-9.5 4.9-.2.1-.4.2-.6.2z"/>
  <path d="M1 17c-.6 0-1-.4-1-1V8c0-.6.4-1 1-1s1 .4 1 1v8c0 .6-.4 1-1 1zM35 17c-.6 0-1-.4-1-1V8c0-.6.4-1 1-1s1 .4 1 1v8c0 .6-.4 1-1 1zM26 36H10c-1.7 0-3-1.3-3-3V14c0-.6.4-1 1-1s1 .4 1 1v19c0 .6.4 1 1 1h16c.6 0 1-.4 1-1V14c0-.6.4-1 1-1s1 .4 1 1v19c0 1.7-1.3 3-3 3z"/>
  <path d="M1 17c-.4 0-.8-.3-1-.7-.2-.5.2-1.1.7-1.2l7-2c.5-.2 1.1.2 1.2.7.2.5-.2 1.1-.7 1.2l-7 2H1zM35 17h-.3l-7-2c-.5-.2-.8-.7-.7-1.2.2-.5.7-.8 1.2-.7l7 2c.5.2.8.7.7 1.2-.1.4-.5.7-.9.7z"/>
</svg>
