<svg xmlns="http://www.w3.org/2000/svg" viewBox="0 0 36 36">
  <path d="M12.3 19c-.4 0-.7-.2-.9-.5-.9-1.8-1.4-3.8-1.4-6C10 6.7 13.6 2 18 2s8 4.7 8 10.5c0 2.1-.5 4.2-1.4 6-.3.5-.9.7-1.3.4-.5-.3-.7-.9-.4-1.4.8-1.5 1.2-3.2 1.2-5C24 7.8 21.3 4 18 4s-6 3.8-6 8.5c0 1.8.4 3.6 1.2 5 .3.5.1 1.1-.4 1.4-.2.1-.3.1-.5.1z"/>
  <path d="M18 26c-5.5 0-10-3.6-10-8v-1h20v1c0 4.4-4.5 8-10 8zm-7.9-7c.6 2.8 3.9 5 7.9 5s7.3-2.2 7.9-5H10.1z"/>
  <path d="M23.3 34H11.7l2.3-9.2c.1-.5.7-.9 1.2-.7.5.1.9.7.7 1.2L14.3 32h6.4L19 25.2c-.1-.5.2-1.1.7-1.2.5-.1 1.1.2 1.2.7l2.4 9.3z"/>
</svg>
