<svg xmlns="http://www.w3.org/2000/svg" viewBox="0 0 36 36">
  <path d="M1.4 15c-.2 0-.4-.1-.6-.2-.4-.3-.5-1-.1-1.4C5 8 11.4 5 18.3 5c6.8 0 13.2 3 17.6 8.3.4.4.3 1.1-.1 1.4-.4.4-1.1.3-1.4-.1-4-4.8-9.8-7.6-16-7.6C12 7 6.1 9.8 2.2 14.6c-.2.3-.5.4-.8.4z"/>
  <path d="M5.5 20c-.2 0-.4-.1-.6-.2-.4-.3-.5-1-.2-1.4C8 14.3 12.8 12 18 12c5.2 0 10 2.3 13.3 6.4.3.4.3 1.1-.2 1.4-.4.3-1.1.3-1.4-.2C26.8 16.1 22.6 14 18 14s-8.8 2.1-11.7 5.6c-.2.3-.5.4-.8.4z"/>
  <path d="M10 25c-.2 0-.4-.1-.6-.2-.4-.3-.5-1-.2-1.4 2.1-2.8 5.3-4.4 8.8-4.4 3.5 0 6.7 1.6 8.8 4.4.3.4.2 1.1-.2 1.4-.4.3-1.1.2-1.4-.2-1.7-2.3-4.3-3.6-7.2-3.6-2.9 0-5.5 1.3-7.2 3.6-.2.3-.5.4-.8.4z"/>
  <circle cx="18" cy="29" r="3"/>
</svg>
