<svg xmlns="http://www.w3.org/2000/svg" viewBox="0 0 36 36">
  <path d="M31 32H4c-1.7 0-3-1.3-3-3V11c0-1.7 1.3-3 3-3h27c1.7 0 3 1.3 3 3v18c0 1.7-1.3 3-3 3zM4 10c-.6 0-1 .4-1 1v18c0 .6.4 1 1 1h27c.6 0 1-.4 1-1V11c0-.6-.4-1-1-1H4z"/>
  <path d="M7 31c-.6 0-1-.4-1-1V10c0-.5.4-1 1-1 .5 0 1 .4 1 1v20c0 .6-.4 1-1 1zM29 31c-.6 0-1-.4-1-1V10c0-.5.4-1 1-1 .5 0 1 .4 1 1v20c0 .6-.4 1-1 1z"/>
  <path d="M8 27H6c-.5 0-1-.4-1-1 0-.5.4-1 1-1h2c.5 0 1 .4 1 1s-.4 1-1 1zM30 27h-2c-.5 0-1-.4-1-1 0-.5.4-1 1-1h2c.5 0 1 .4 1 1s-.4 1-1 1zM8 15H6c-.5 0-1-.4-1-1 0-.5.4-1 1-1h2c.5 0 1 .4 1 1s-.4 1-1 1zM30 15h-2c-.5 0-1-.4-1-1 0-.5.4-1 1-1h2c.5 0 1 .4 1 1s-.4 1-1 1zM13.1 9.3l-2-.3c.5-2.9 3-5 5.9-5h2c2.8 0 5.3 2 5.9 4.8l-2 .4C22.5 7.3 20.9 6 19 6h-2c-1.9 0-3.6 1.4-3.9 3.3z"/>
</svg>
