<svg xmlns="http://www.w3.org/2000/svg" viewBox="0 0 36 36">
  <path d="M32 34c-.6 0-1-.4-1-1V10c0-2.2-1.8-4-4-4-.9 0-1.7.3-2.4.8-.4.3-1.1.2-1.4-.2s-.2-1.1.2-1.4c1-.8 2.3-1.2 3.6-1.2 3.3 0 6 2.7 6 6v23c0 .6-.4 1-1 1z"/>
  <path d="M24 18.3l-.7-.7c-.8-.8-3.5-3.4-5.9-5.7-2-1.9-3.7-3.6-4.1-4l-.7-.7.7-.7C14.8 4.9 16.8 4 19 4c4.4 0 8 3.6 8 8 0 2.1-.8 4.1-2.3 5.6l-.7.7zM15.4 7.2c.8.8 2 2 3.4 3.3 1.9 1.8 3.9 3.8 5.1 5 .7-1 1.1-2.2 1.1-3.4 0-3.3-2.7-6-6-6-1.3-.1-2.5.3-3.6 1.1z"/>
  <circle cx="11.5" cy="11.5" r="1.5"/>
  <circle cx="15.5" cy="15.5" r="1.5"/>
  <circle cx="19.5" cy="19.5" r="1.5"/>
  <circle cx="7.5" cy="15.5" r="1.5"/>
  <circle cx="11.5" cy="19.5" r="1.5"/>
  <circle cx="15.5" cy="23.5" r="1.5"/>
  <circle cx="4.5" cy="19.5" r="1.5"/>
  <circle cx="8.5" cy="23.5" r="1.5"/>
  <circle cx="12.5" cy="27.5" r="1.5"/>
</svg>
